<svg xmlns="http://www.w3.org/2000/svg" viewBox="21.1 20.3 204.8 50.6"><path fill="#0E3A5B" d="M125.3 20.7c2.4-.3 4.9-.4 7.3-.3.3 5.5.1 11.1.2 16.6 4.9-2.2 10.7-3.9 16-1.9 3.6 1.5 4.7 5.7 4.7 9.2.1 8.8.1 17.5 0 26.3-2.4-.1-6 1.2-7.6-1.1-.3-8.1.1-16.3-.2-24.5 0-1.7-.9-3.7-2.8-3.8-3.5-.6-7 .6-10.1 2.1 0 9.1.2 18.2-.1 27.3-2.4.1-4.9 0-7.3-.3-.2-16.4-.2-33-.1-49.6z"/><path fill="#EC5757" d="M89.1 34.4c2.9.1 7.6-1.2 8.5 2.7 2.5 8.4 4.9 16.8 7.3 25.2 1.3-8.5 4.4-16.5 6.6-24.7.5-3.9 5-3.5 7.9-3.1.2.3.6 1 .9 1.3-3.2 10.4-7.3 20.4-10.8 30.7-.8 1.6-1.1 4.6-3.5 4.4-1.9-.1-4.9.2-5.5-2.2-2.7-6.8-4.9-13.8-7.4-20.7-1.5-4.5-3.7-8.8-4-13.6z"/><path fill="#0E3A5B" d="M161.3 34.7c2.4-.3 4.9-.4 7.3-.3.4 8.2 0 16.5.2 24.8 0 2.1.8 4.7 3.1 5.2 3.3.7 6.6 0 9.9-.6 0-9.4-.2-18.7.1-28.1 1.7-2.2 5.1-1.1 7.6-1.2.2 11.2.2 22.5 0 33.7-6.6 2.7-14 3.3-21.1 2.2-4.1-.7-7.1-4.5-7.1-8.7-.1-9-.1-18 0-27z"/><path fill="#EC5757" d="M67.3 63.6c-2.5-1-2.9-3.9-3.6-6.2 5.8-.5 11.9 0 17.2-2.5 4.9-2.5 4.8-9.1 3.8-13.8-.9-4.3-5.5-6.5-9.6-6.7-5.4-.3-12-.7-15.9 3.7-3.8 4.8-2.2 11.3-2.5 16.9-.3 5.7 1.2 13 7.5 14.9 6.8 1.7 14 1.1 20.8-.5-.1-2-.3-3.9-.5-5.9-5.7.7-11.7 2.2-17.2.1zm-2.5-20.8c1.7-3.3 6.1-2.8 9.1-2.4 4.3.4 4.8 6.5 2.7 9.3-3.6 2.4-8.3 1.5-12.4 1.9.1-3-.3-6 .6-8.8zM49.3 20.5c-2.5-.1-5.1 0-7.6.2-.1 5.1-.1 10.2 0 15.2-4.9-1.3-10.4-2.7-15.2-.5-3.9 1.8-5.3 6.5-5.2 10.5 0 5.7-.3 11.3.2 17 .3 4 3.8 7.1 7.7 7.6 6.8 1 13.8.3 20.1-2.3.1-16 .1-31.9 0-47.7zm-7.7 43.4c-3.4.4-7.1 1.4-10.5 0-3-1.8-2.2-5.9-2.4-8.9.3-4-.7-8.4 1.1-12.1 3-3.4 8.1-1.4 11.8-.5-.1 7.2 0 14.4 0 21.5z"/><path fill="#0E3A5B" d="M225.9 52c-.2-5.4 1.2-12.3-3.9-16-5.1-3.2-11.5-1.5-16.6 1 0-5.5.1-11-.1-16.4-2.5-.3-5.1-.2-7.6.6.1 15.7-.1 31.4.1 47.1 3.4 1.8 7.3 2.6 11.2 2.6 4.9.2 10.7.4 14.4-3.4 3.6-4.4 2.1-10.4 2.5-15.5zm-8.6 11.3c-3.8 1.7-8 1.4-11.9.5.1-7 0-14 .1-20.9 3.5-1.2 7.5-2.6 11.1-1.1 2.2 1.7 1.7 4.8 1.8 7.3-.2 4.7.5 9.6-1.1 14.2z"/></svg>